<mxfile host="app.diagrams.net" modified="2023-10-07T12:37:55.284Z" agent="Mozilla/5.0 (Windows NT 10.0; Win64; x64) AppleWebKit/537.36 (KHTML, like Gecko) Chrome/117.0.0.0 Safari/537.36" etag="l-mE6SQFnMiUdOv3r6JP" version="22.0.4" type="device">
  <diagram name="Page-1" id="yZ9OJg5kGjnXTG0sYjFZ">
    <mxGraphModel dx="880" dy="470" grid="1" gridSize="10" guides="1" tooltips="1" connect="1" arrows="1" fold="1" page="1" pageScale="1" pageWidth="850" pageHeight="1100" math="0" shadow="0">
      <root>
        <mxCell id="0" />
        <mxCell id="1" parent="0" />
        <mxCell id="Yphmr9MdTZs5uCo5oBof-1" style="edgeStyle=orthogonalEdgeStyle;rounded=0;orthogonalLoop=1;jettySize=auto;html=1;exitX=1;exitY=0.25;exitDx=0;exitDy=0;entryX=0;entryY=0.5;entryDx=0;entryDy=0;" parent="1" source="Yphmr9MdTZs5uCo5oBof-9" target="Yphmr9MdTZs5uCo5oBof-23" edge="1">
          <mxGeometry relative="1" as="geometry">
            <mxPoint x="99.99999999999989" y="240" as="sourcePoint" />
            <mxPoint x="280" y="150" as="targetPoint" />
            <Array as="points">
              <mxPoint x="270" y="240" />
              <mxPoint x="270" y="160" />
            </Array>
          </mxGeometry>
        </mxCell>
        <mxCell id="Yphmr9MdTZs5uCo5oBof-2" value="Edit Emp | Type" style="edgeLabel;html=1;align=center;verticalAlign=middle;resizable=0;points=[];rotation=-90;fontSize=12;fontStyle=2" parent="Yphmr9MdTZs5uCo5oBof-1" vertex="1" connectable="0">
          <mxGeometry x="-0.5935" y="-1" relative="1" as="geometry">
            <mxPoint x="23" y="-41" as="offset" />
          </mxGeometry>
        </mxCell>
        <mxCell id="Yphmr9MdTZs5uCo5oBof-3" style="edgeStyle=orthogonalEdgeStyle;rounded=0;orthogonalLoop=1;jettySize=auto;html=1;exitX=1;exitY=0.75;exitDx=0;exitDy=0;entryX=0;entryY=0.5;entryDx=0;entryDy=0;" parent="1" source="Yphmr9MdTZs5uCo5oBof-9" target="Yphmr9MdTZs5uCo5oBof-28" edge="1">
          <mxGeometry relative="1" as="geometry">
            <Array as="points">
              <mxPoint x="270" y="280" />
              <mxPoint x="270" y="360" />
            </Array>
          </mxGeometry>
        </mxCell>
        <mxCell id="Yphmr9MdTZs5uCo5oBof-4" value="Remove Emp | Type" style="edgeLabel;html=1;align=center;verticalAlign=middle;resizable=0;points=[];rotation=-90;fontSize=12;fontStyle=2" parent="Yphmr9MdTZs5uCo5oBof-3" vertex="1" connectable="0">
          <mxGeometry x="-0.7265" y="-1" relative="1" as="geometry">
            <mxPoint x="42" y="39" as="offset" />
          </mxGeometry>
        </mxCell>
        <mxCell id="Yphmr9MdTZs5uCo5oBof-5" style="edgeStyle=orthogonalEdgeStyle;rounded=0;orthogonalLoop=1;jettySize=auto;html=1;exitX=0.75;exitY=0;exitDx=0;exitDy=0;entryX=0;entryY=0.5;entryDx=0;entryDy=0;" parent="1" source="Yphmr9MdTZs5uCo5oBof-9" target="Yphmr9MdTZs5uCo5oBof-15" edge="1">
          <mxGeometry relative="1" as="geometry" />
        </mxCell>
        <mxCell id="Yphmr9MdTZs5uCo5oBof-6" value="Add Emp | Type" style="edgeLabel;html=1;align=center;verticalAlign=middle;resizable=0;points=[];fontSize=12;fontStyle=2" parent="Yphmr9MdTZs5uCo5oBof-5" vertex="1" connectable="0">
          <mxGeometry x="0.245" relative="1" as="geometry">
            <mxPoint x="-32" as="offset" />
          </mxGeometry>
        </mxCell>
        <mxCell id="Yphmr9MdTZs5uCo5oBof-7" style="edgeStyle=orthogonalEdgeStyle;rounded=0;orthogonalLoop=1;jettySize=auto;html=1;exitX=0.75;exitY=1;exitDx=0;exitDy=0;entryX=0;entryY=0.5;entryDx=0;entryDy=0;" parent="1" source="Yphmr9MdTZs5uCo5oBof-9" target="Yphmr9MdTZs5uCo5oBof-35" edge="1">
          <mxGeometry relative="1" as="geometry" />
        </mxCell>
        <mxCell id="Yphmr9MdTZs5uCo5oBof-8" value="Request Emp | Type Information" style="edgeLabel;html=1;align=center;verticalAlign=middle;resizable=0;points=[];fontSize=12;fontStyle=2" parent="Yphmr9MdTZs5uCo5oBof-7" vertex="1" connectable="0">
          <mxGeometry x="0.192" y="1" relative="1" as="geometry">
            <mxPoint x="18" y="1" as="offset" />
          </mxGeometry>
        </mxCell>
        <mxCell id="Yphmr9MdTZs5uCo5oBof-9" value="ADMIN&lt;br style=&quot;font-size: 14px;&quot;&gt;[ OWNER ]" style="rounded=1;whiteSpace=wrap;html=1;fontSize=14;fontStyle=1" parent="1" vertex="1">
          <mxGeometry x="70" y="220" width="120" height="80" as="geometry" />
        </mxCell>
        <mxCell id="Yphmr9MdTZs5uCo5oBof-10" value="" style="rounded=0;whiteSpace=wrap;html=1;" parent="1" vertex="1">
          <mxGeometry y="520" width="850" height="10" as="geometry" />
        </mxCell>
        <mxCell id="Yphmr9MdTZs5uCo5oBof-11" style="edgeStyle=orthogonalEdgeStyle;rounded=0;orthogonalLoop=1;jettySize=auto;html=1;exitX=1;exitY=1;exitDx=0;exitDy=0;" parent="1" source="Yphmr9MdTZs5uCo5oBof-15" edge="1">
          <mxGeometry relative="1" as="geometry">
            <mxPoint x="510" y="230" as="targetPoint" />
            <Array as="points">
              <mxPoint x="510" y="88" />
            </Array>
          </mxGeometry>
        </mxCell>
        <mxCell id="Yphmr9MdTZs5uCo5oBof-12" value="New Emp | Type" style="edgeLabel;html=1;align=center;verticalAlign=middle;resizable=0;points=[];rotation=90;fontSize=12;fontStyle=2" parent="Yphmr9MdTZs5uCo5oBof-11" vertex="1" connectable="0">
          <mxGeometry x="-0.3177" y="-1" relative="1" as="geometry">
            <mxPoint x="1" y="29" as="offset" />
          </mxGeometry>
        </mxCell>
        <mxCell id="Yphmr9MdTZs5uCo5oBof-13" style="edgeStyle=orthogonalEdgeStyle;rounded=0;orthogonalLoop=1;jettySize=auto;html=1;exitX=0;exitY=0;exitDx=0;exitDy=0;entryX=0.25;entryY=0;entryDx=0;entryDy=0;" parent="1" source="Yphmr9MdTZs5uCo5oBof-15" target="Yphmr9MdTZs5uCo5oBof-9" edge="1">
          <mxGeometry relative="1" as="geometry" />
        </mxCell>
        <mxCell id="Yphmr9MdTZs5uCo5oBof-14" value="Emp | Type Information" style="edgeLabel;html=1;align=center;verticalAlign=middle;resizable=0;points=[];fontSize=12;fontStyle=2" parent="Yphmr9MdTZs5uCo5oBof-13" vertex="1" connectable="0">
          <mxGeometry x="-0.3147" relative="1" as="geometry">
            <mxPoint x="-65" as="offset" />
          </mxGeometry>
        </mxCell>
        <mxCell id="Yphmr9MdTZs5uCo5oBof-15" value="2.1 | 3.1&lt;br style=&quot;font-size: 13px;&quot;&gt;Insert &lt;br style=&quot;font-size: 13px;&quot;&gt;Emp | Type" style="ellipse;whiteSpace=wrap;html=1;fontSize=13;fontStyle=1" parent="1" vertex="1">
          <mxGeometry x="390" y="20" width="80" height="80" as="geometry" />
        </mxCell>
        <mxCell id="Yphmr9MdTZs5uCo5oBof-16" style="edgeStyle=orthogonalEdgeStyle;rounded=0;orthogonalLoop=1;jettySize=auto;html=1;exitX=0;exitY=0.25;exitDx=0;exitDy=0;" parent="1" source="Yphmr9MdTZs5uCo5oBof-18" edge="1">
          <mxGeometry relative="1" as="geometry">
            <mxPoint x="655" y="240" as="sourcePoint" />
            <mxPoint x="465" y="440" as="targetPoint" />
            <Array as="points">
              <mxPoint x="555" y="240" />
              <mxPoint x="555" y="440" />
            </Array>
          </mxGeometry>
        </mxCell>
        <mxCell id="Yphmr9MdTZs5uCo5oBof-17" value="Request Emp | Type Information" style="edgeLabel;html=1;align=center;verticalAlign=middle;resizable=0;points=[];rotation=-90;fontSize=12;fontStyle=2" parent="Yphmr9MdTZs5uCo5oBof-16" vertex="1" connectable="0">
          <mxGeometry x="-0.5965" y="2" relative="1" as="geometry">
            <mxPoint x="-34" y="98" as="offset" />
          </mxGeometry>
        </mxCell>
        <mxCell id="Yphmr9MdTZs5uCo5oBof-18" value="USERS&lt;br style=&quot;font-size: 14px;&quot;&gt;[ PASSENGER ]" style="rounded=1;whiteSpace=wrap;html=1;fontSize=14;fontStyle=1" parent="1" vertex="1">
          <mxGeometry x="670" y="220" width="120" height="80" as="geometry" />
        </mxCell>
        <mxCell id="Yphmr9MdTZs5uCo5oBof-19" style="edgeStyle=orthogonalEdgeStyle;rounded=0;orthogonalLoop=1;jettySize=auto;html=1;exitX=1;exitY=1;exitDx=0;exitDy=0;" parent="1" source="Yphmr9MdTZs5uCo5oBof-23" edge="1">
          <mxGeometry relative="1" as="geometry">
            <mxPoint x="470" y="230" as="targetPoint" />
            <Array as="points">
              <mxPoint x="458" y="190" />
              <mxPoint x="500" y="190" />
              <mxPoint x="500" y="210" />
              <mxPoint x="470" y="210" />
            </Array>
          </mxGeometry>
        </mxCell>
        <mxCell id="Yphmr9MdTZs5uCo5oBof-20" value="Emp&lt;br&gt;Type&lt;br style=&quot;font-size: 12px;&quot;&gt;ID" style="edgeLabel;html=1;align=center;verticalAlign=middle;resizable=0;points=[];fontSize=12;fontStyle=2" parent="Yphmr9MdTZs5uCo5oBof-19" vertex="1" connectable="0">
          <mxGeometry x="-0.4846" relative="1" as="geometry">
            <mxPoint y="10" as="offset" />
          </mxGeometry>
        </mxCell>
        <mxCell id="Yphmr9MdTZs5uCo5oBof-21" style="edgeStyle=orthogonalEdgeStyle;rounded=0;orthogonalLoop=1;jettySize=auto;html=1;exitX=0;exitY=0;exitDx=0;exitDy=0;entryX=1;entryY=0;entryDx=0;entryDy=0;" parent="1" source="Yphmr9MdTZs5uCo5oBof-23" target="Yphmr9MdTZs5uCo5oBof-9" edge="1">
          <mxGeometry relative="1" as="geometry" />
        </mxCell>
        <mxCell id="Yphmr9MdTZs5uCo5oBof-22" value="Emp | Type Information" style="edgeLabel;html=1;align=center;verticalAlign=middle;resizable=0;points=[];fontSize=12;fontStyle=2" parent="Yphmr9MdTZs5uCo5oBof-21" vertex="1" connectable="0">
          <mxGeometry x="-0.1198" y="-1" relative="1" as="geometry">
            <mxPoint x="-11" as="offset" />
          </mxGeometry>
        </mxCell>
        <mxCell id="Yphmr9MdTZs5uCo5oBof-23" value="2.2 | 3.2&lt;br style=&quot;border-color: var(--border-color); font-size: 13px;&quot;&gt;Update&lt;br style=&quot;border-color: var(--border-color); font-size: 13px;&quot;&gt;Emp | Type" style="ellipse;whiteSpace=wrap;html=1;fontSize=13;fontStyle=1" parent="1" vertex="1">
          <mxGeometry x="390" y="120" width="80" height="80" as="geometry" />
        </mxCell>
        <mxCell id="Yphmr9MdTZs5uCo5oBof-24" style="edgeStyle=orthogonalEdgeStyle;rounded=0;orthogonalLoop=1;jettySize=auto;html=1;exitX=0;exitY=0;exitDx=0;exitDy=0;" parent="1" edge="1">
          <mxGeometry relative="1" as="geometry">
            <mxPoint x="401.7157287525381" y="331.71572875253804" as="sourcePoint" />
            <mxPoint x="390" y="290" as="targetPoint" />
            <Array as="points">
              <mxPoint x="360" y="332" />
              <mxPoint x="360" y="310" />
              <mxPoint x="390" y="310" />
            </Array>
          </mxGeometry>
        </mxCell>
        <mxCell id="Yphmr9MdTZs5uCo5oBof-25" value="Emp&lt;br&gt;Type&lt;br style=&quot;font-size: 12px;&quot;&gt;ID" style="edgeLabel;html=1;align=center;verticalAlign=middle;resizable=0;points=[];fontSize=12;fontStyle=2" parent="Yphmr9MdTZs5uCo5oBof-24" vertex="1" connectable="0">
          <mxGeometry x="-0.0718" relative="1" as="geometry">
            <mxPoint x="14" as="offset" />
          </mxGeometry>
        </mxCell>
        <mxCell id="Yphmr9MdTZs5uCo5oBof-26" style="edgeStyle=orthogonalEdgeStyle;rounded=0;orthogonalLoop=1;jettySize=auto;html=1;exitX=0;exitY=1;exitDx=0;exitDy=0;entryX=1;entryY=1;entryDx=0;entryDy=0;" parent="1" source="Yphmr9MdTZs5uCo5oBof-28" target="Yphmr9MdTZs5uCo5oBof-9" edge="1">
          <mxGeometry relative="1" as="geometry" />
        </mxCell>
        <mxCell id="Yphmr9MdTZs5uCo5oBof-27" value="Emp | Type Information" style="edgeLabel;html=1;align=center;verticalAlign=middle;resizable=0;points=[];fontSize=12;fontStyle=2" parent="Yphmr9MdTZs5uCo5oBof-26" vertex="1" connectable="0">
          <mxGeometry x="-0.0185" y="-1" relative="1" as="geometry">
            <mxPoint x="4" as="offset" />
          </mxGeometry>
        </mxCell>
        <mxCell id="Yphmr9MdTZs5uCo5oBof-28" value="2.3 | 3.3&lt;br style=&quot;border-color: var(--border-color); font-size: 13px;&quot;&gt;Delete&lt;br style=&quot;border-color: var(--border-color); font-size: 13px;&quot;&gt;Emp | Type" style="ellipse;whiteSpace=wrap;html=1;fontSize=13;fontStyle=1" parent="1" vertex="1">
          <mxGeometry x="390" y="320" width="80" height="80" as="geometry" />
        </mxCell>
        <mxCell id="Yphmr9MdTZs5uCo5oBof-29" style="edgeStyle=orthogonalEdgeStyle;rounded=0;orthogonalLoop=1;jettySize=auto;html=1;exitX=0;exitY=0;exitDx=0;exitDy=0;" parent="1" source="Yphmr9MdTZs5uCo5oBof-35" edge="1">
          <mxGeometry relative="1" as="geometry">
            <mxPoint x="350" y="290" as="targetPoint" />
            <Array as="points">
              <mxPoint x="350" y="432" />
            </Array>
          </mxGeometry>
        </mxCell>
        <mxCell id="Yphmr9MdTZs5uCo5oBof-30" value="Req. Emp | Type" style="edgeLabel;html=1;align=center;verticalAlign=middle;resizable=0;points=[];rotation=-90;fontSize=12;fontStyle=2" parent="Yphmr9MdTZs5uCo5oBof-29" vertex="1" connectable="0">
          <mxGeometry x="-0.3414" relative="1" as="geometry">
            <mxPoint x="-1" y="-33" as="offset" />
          </mxGeometry>
        </mxCell>
        <mxCell id="Yphmr9MdTZs5uCo5oBof-31" style="edgeStyle=orthogonalEdgeStyle;rounded=0;orthogonalLoop=1;jettySize=auto;html=1;entryX=0;entryY=0.75;entryDx=0;entryDy=0;exitX=0.941;exitY=0.743;exitDx=0;exitDy=0;exitPerimeter=0;" parent="1" source="Yphmr9MdTZs5uCo5oBof-35" target="Yphmr9MdTZs5uCo5oBof-18" edge="1">
          <mxGeometry relative="1" as="geometry">
            <mxPoint x="470" y="480" as="sourcePoint" />
            <Array as="points">
              <mxPoint x="470" y="479" />
              <mxPoint x="610" y="480" />
              <mxPoint x="610" y="280" />
            </Array>
          </mxGeometry>
        </mxCell>
        <mxCell id="Yphmr9MdTZs5uCo5oBof-32" value="Response Emp | Type Information" style="edgeLabel;html=1;align=center;verticalAlign=middle;resizable=0;points=[];rotation=-90;fontSize=12;fontStyle=2" parent="Yphmr9MdTZs5uCo5oBof-31" vertex="1" connectable="0">
          <mxGeometry x="-0.467" y="-2" relative="1" as="geometry">
            <mxPoint x="36" y="-102" as="offset" />
          </mxGeometry>
        </mxCell>
        <mxCell id="Yphmr9MdTZs5uCo5oBof-33" style="edgeStyle=orthogonalEdgeStyle;rounded=0;orthogonalLoop=1;jettySize=auto;html=1;exitX=0;exitY=1;exitDx=0;exitDy=0;entryX=0.25;entryY=1;entryDx=0;entryDy=0;" parent="1" source="Yphmr9MdTZs5uCo5oBof-35" target="Yphmr9MdTZs5uCo5oBof-9" edge="1">
          <mxGeometry relative="1" as="geometry" />
        </mxCell>
        <mxCell id="Yphmr9MdTZs5uCo5oBof-34" value="Response Emp | Type Information" style="edgeLabel;html=1;align=center;verticalAlign=middle;resizable=0;points=[];fontSize=12;fontStyle=2" parent="Yphmr9MdTZs5uCo5oBof-33" vertex="1" connectable="0">
          <mxGeometry x="-0.219" relative="1" as="geometry">
            <mxPoint x="-16" as="offset" />
          </mxGeometry>
        </mxCell>
        <mxCell id="Yphmr9MdTZs5uCo5oBof-35" value="2.4 | 3.4&lt;br style=&quot;border-color: var(--border-color); font-size: 13px;&quot;&gt;View&lt;br style=&quot;border-color: var(--border-color); font-size: 13px;&quot;&gt;Emp | Type" style="ellipse;whiteSpace=wrap;html=1;fontSize=13;fontStyle=1" parent="1" vertex="1">
          <mxGeometry x="390" y="420" width="80" height="80" as="geometry" />
        </mxCell>
        <mxCell id="Yphmr9MdTZs5uCo5oBof-36" style="edgeStyle=orthogonalEdgeStyle;rounded=0;orthogonalLoop=1;jettySize=auto;html=1;entryX=0;entryY=1;entryDx=0;entryDy=0;" parent="1" target="Yphmr9MdTZs5uCo5oBof-15" edge="1">
          <mxGeometry relative="1" as="geometry">
            <mxPoint x="350" y="230" as="sourcePoint" />
            <Array as="points">
              <mxPoint x="350" y="88" />
            </Array>
          </mxGeometry>
        </mxCell>
        <mxCell id="Yphmr9MdTZs5uCo5oBof-37" value="Addition Emp | Type" style="edgeLabel;html=1;align=center;verticalAlign=middle;resizable=0;points=[];rotation=-90;fontSize=12;fontStyle=2" parent="Yphmr9MdTZs5uCo5oBof-36" vertex="1" connectable="0">
          <mxGeometry x="0.2606" y="-1" relative="1" as="geometry">
            <mxPoint x="-1" y="32" as="offset" />
          </mxGeometry>
        </mxCell>
        <mxCell id="Yphmr9MdTZs5uCo5oBof-38" style="edgeStyle=orthogonalEdgeStyle;rounded=0;orthogonalLoop=1;jettySize=auto;html=1;entryX=0;entryY=1;entryDx=0;entryDy=0;" parent="1" target="Yphmr9MdTZs5uCo5oBof-23" edge="1">
          <mxGeometry relative="1" as="geometry">
            <mxPoint x="390" y="230" as="sourcePoint" />
            <Array as="points">
              <mxPoint x="390" y="210" />
              <mxPoint x="360" y="210" />
              <mxPoint x="360" y="188" />
              <mxPoint x="402" y="188" />
            </Array>
          </mxGeometry>
        </mxCell>
        <mxCell id="Yphmr9MdTZs5uCo5oBof-39" value="Edit&lt;br style=&quot;font-size: 12px;&quot;&gt;Emp&lt;br&gt;Type" style="edgeLabel;html=1;align=center;verticalAlign=middle;resizable=0;points=[];fontSize=12;fontStyle=2" parent="Yphmr9MdTZs5uCo5oBof-38" vertex="1" connectable="0">
          <mxGeometry x="0.4151" relative="1" as="geometry">
            <mxPoint x="5" y="14" as="offset" />
          </mxGeometry>
        </mxCell>
        <mxCell id="Yphmr9MdTZs5uCo5oBof-40" style="edgeStyle=orthogonalEdgeStyle;rounded=0;orthogonalLoop=1;jettySize=auto;html=1;entryX=1;entryY=0;entryDx=0;entryDy=0;" parent="1" target="Yphmr9MdTZs5uCo5oBof-35" edge="1">
          <mxGeometry relative="1" as="geometry">
            <mxPoint x="510" y="290" as="sourcePoint" />
            <Array as="points">
              <mxPoint x="510" y="432" />
            </Array>
          </mxGeometry>
        </mxCell>
        <mxCell id="Yphmr9MdTZs5uCo5oBof-41" value="Res. Emp | Type" style="edgeLabel;html=1;align=center;verticalAlign=middle;resizable=0;points=[];rotation=90;fontSize=12;fontStyle=2" parent="Yphmr9MdTZs5uCo5oBof-40" vertex="1" connectable="0">
          <mxGeometry x="0.3069" y="-1" relative="1" as="geometry">
            <mxPoint x="2" y="-29" as="offset" />
          </mxGeometry>
        </mxCell>
        <mxCell id="Yphmr9MdTZs5uCo5oBof-42" style="edgeStyle=orthogonalEdgeStyle;rounded=0;orthogonalLoop=1;jettySize=auto;html=1;entryX=1;entryY=0;entryDx=0;entryDy=0;" parent="1" target="Yphmr9MdTZs5uCo5oBof-28" edge="1">
          <mxGeometry relative="1" as="geometry">
            <mxPoint x="470" y="290" as="sourcePoint" />
            <Array as="points">
              <mxPoint x="470" y="310" />
              <mxPoint x="500" y="310" />
              <mxPoint x="500" y="332" />
            </Array>
          </mxGeometry>
        </mxCell>
        <mxCell id="Yphmr9MdTZs5uCo5oBof-43" value="Remove&lt;br style=&quot;font-size: 12px;&quot;&gt;Emp&lt;br&gt;Type" style="edgeLabel;html=1;align=center;verticalAlign=middle;resizable=0;points=[];fontSize=12;fontStyle=2" parent="Yphmr9MdTZs5uCo5oBof-42" vertex="1" connectable="0">
          <mxGeometry x="-0.0289" y="-1" relative="1" as="geometry">
            <mxPoint x="-13" y="-13" as="offset" />
          </mxGeometry>
        </mxCell>
        <mxCell id="Yphmr9MdTZs5uCo5oBof-44" value="Emp | Emp. Type" style="html=1;dashed=0;whiteSpace=wrap;shape=partialRectangle;right=0;left=0;fontSize=14;fontStyle=1" parent="1" vertex="1">
          <mxGeometry x="350" y="240" width="160" height="40" as="geometry" />
        </mxCell>
      </root>
    </mxGraphModel>
  </diagram>
</mxfile>
